<svg version="1.1" id="Layer_1" xmlns="http://www.w3.org/2000/svg" xmlns:xlink="http://www.w3.org/1999/xlink" x="0px" y="0px"
	 width="100%" viewBox="0 0 2000 1247" enable-background="new 0 0 2000 1247" xml:space="preserve">
<path fill="#4C6971" opacity="1.000000" stroke="none" 
	d="
M1289.000000,1248.000000 
	C859.333435,1248.000000 430.166931,1248.000000 1.000288,1248.000000 
	C1.000192,832.333557 1.000192,416.667175 1.000096,1.000567 
	C667.666199,1.000378 1334.332397,1.000378 2000.999023,1.000189 
	C2000.999268,416.666107 2000.999268,832.332214 2000.999634,1247.999146 
	C1763.833374,1248.000000 1526.666626,1248.000000 1289.000000,1248.000000 
M383.297882,312.656097 
	C383.198700,314.145172 383.012909,315.634216 383.012726,317.123291 
	C382.999268,434.058319 382.996246,550.993347 383.040619,667.928345 
	C383.041290,669.648621 383.645569,671.368591 383.989349,674.014709 
	C384.325653,685.798767 384.482574,697.591553 385.060974,709.363770 
	C385.449860,717.278687 385.800659,725.285828 387.284607,733.038025 
	C390.440460,749.524170 393.842316,765.994812 398.022064,782.245850 
	C404.319977,806.732483 414.664337,829.601379 428.356598,850.846619 
	C439.268219,867.777344 452.229523,883.112427 468.182190,895.480347 
	C479.091034,903.937866 490.411438,912.078613 502.372375,918.919250 
	C525.356750,932.064514 550.296021,940.349365 576.496765,944.165100 
	C593.954590,946.707520 611.540222,948.995911 629.140930,949.786194 
	C654.653870,950.931641 680.118347,949.381470 705.413147,945.118591 
	C727.001343,941.480286 747.994690,935.932678 767.918518,926.941589 
	C796.498352,914.044312 821.271973,895.934631 841.703552,871.908813 
	C859.726501,850.715393 872.744324,826.805969 882.153320,800.777466 
	C889.299133,781.009827 894.593811,760.778503 897.133362,739.889648 
	C898.884888,725.483765 901.742920,711.051331 901.784912,696.623962 
	C902.152405,570.147400 901.977905,443.669312 902.080933,317.191803 
	C902.084412,312.950104 900.713684,311.893921 896.661133,311.921112 
	C872.333191,312.084381 848.003662,311.997772 823.674622,312.002655 
	C817.012573,312.003998 817.001770,312.016327 817.001465,318.853363 
	C816.998535,382.842041 817.125488,446.831024 816.958923,510.819275 
	C816.830627,560.099792 816.171204,609.379028 816.073730,658.659424 
	C816.027100,682.232605 813.874390,705.548523 810.086121,728.788086 
	C806.022034,753.718811 798.565002,777.395386 786.679138,799.783875 
	C773.649902,824.325806 754.408875,842.267761 730.046082,854.919128 
	C708.236816,866.244690 684.470764,870.604065 660.291016,871.789917 
	C638.611328,872.853210 616.890320,872.297058 595.366577,868.087524 
	C568.948608,862.920837 545.558838,851.897583 525.502930,833.961182 
	C506.203766,816.701599 494.595276,794.570557 486.063568,770.597961 
	C478.834717,750.286316 474.627075,729.308899 472.978546,707.828186 
	C471.574280,689.530212 469.237244,671.224182 469.178223,652.915710 
	C468.821442,542.269714 469.000885,431.622101 469.000458,320.975006 
	C469.000458,319.308655 468.869446,317.631165 469.016998,315.978333 
	C469.291870,312.899109 467.926971,311.952148 464.947693,311.966125 
	C437.955200,312.092346 410.962219,312.112305 383.297882,312.656097 
M823.689575,268.532196 
	C823.793030,266.215332 823.984863,263.898529 823.987000,261.581573 
	C824.038818,205.725906 824.070312,149.870224 825.029541,94.005440 
	C1175.674805,94.004059 1526.320190,94.002480 1876.965454,94.002678 
	C1883.988525,94.002678 1883.998413,94.012314 1883.998413,100.996559 
	C1884.000000,449.975586 1884.000000,798.954590 1883.998535,1147.933594 
	C1883.998535,1154.986694 1883.989380,1154.997314 1877.035278,1154.997314 
	C1677.713989,1154.999390 1478.392578,1155.001953 1279.071289,1154.998535 
	C1127.413818,1154.995850 975.756287,1154.984863 824.027954,1154.046387 
	C824.018616,1098.054077 824.019592,1042.061768 823.959106,986.069519 
	C823.956848,984.015076 823.352966,981.961304 822.419983,979.317993 
	C805.099060,979.211853 787.778259,979.090088 770.457214,979.007690 
	C764.017517,978.977051 764.002502,979.019043 764.002197,985.569824 
	C763.998474,1058.895752 763.982483,1132.221680 764.020264,1205.547607 
	C764.025269,1215.199341 762.787720,1213.981079 772.573792,1213.981567 
	C1159.701294,1214.004395 1546.828857,1214.005249 1933.956421,1213.977783 
	C1944.398926,1213.977051 1942.976685,1215.391724 1942.977417,1205.018188 
	C1943.004883,818.057312 1943.000732,431.096466 1943.000610,44.135590 
	C1943.000610,34.999588 1943.000000,34.998848 1933.610229,34.998844 
	C1546.816040,34.998726 1160.021729,34.998737 773.227539,34.998913 
	C771.727661,34.998913 770.208923,35.154957 768.731689,34.972805 
	C764.959045,34.507622 763.931580,36.127934 763.935974,39.799072 
	C764.025696,114.958031 764.027527,190.117157 763.932495,265.276093 
	C763.927734,269.043701 765.134460,270.105042 768.804443,270.069000 
	C785.467773,269.905396 802.133728,270.019562 818.798523,269.958801 
	C820.209839,269.953644 821.619202,269.394531 823.689575,268.532196 
M1128.503784,352.997253 
	C1118.346069,361.150635 1107.716309,368.792511 1098.168823,377.606842 
	C1089.308350,385.786713 1081.401367,395.041321 1073.436646,404.139648 
	C1060.890869,418.470978 1050.578003,434.413177 1041.513794,451.104095 
	C1030.924683,470.603119 1022.435974,491.010315 1016.271851,512.381042 
	C1008.464600,539.448303 1004.016174,567.105225 1002.164856,595.129822 
	C1001.260864,608.815247 1001.484070,622.632446 1002.116394,636.347656 
	C1002.930359,654.002930 1003.569397,671.788086 1006.304321,689.199890 
	C1009.234985,707.857788 1013.870850,726.325256 1018.934143,744.550293 
	C1024.749756,765.483459 1034.185303,785.025818 1044.954468,803.893005 
	C1056.292236,823.756165 1069.688721,842.153687 1085.406982,858.720032 
	C1093.714844,867.476257 1102.520264,875.957214 1112.085083,883.276550 
	C1125.270386,893.366516 1138.831665,903.213501 1153.226685,911.419434 
	C1178.000732,925.542114 1204.560425,935.560913 1232.511230,941.789551 
	C1253.220947,946.404480 1274.204224,949.434631 1295.311890,949.722534 
	C1315.651611,950.000000 1336.057983,948.479431 1356.369019,946.899780 
	C1376.156006,945.361023 1395.345581,940.394592 1414.240112,934.386047 
	C1433.687866,928.201721 1452.058472,919.624573 1469.829834,909.644226 
	C1489.951050,898.344177 1508.124146,884.421875 1524.773438,868.565613 
	C1532.307861,861.390076 1539.169678,853.458435 1545.905273,845.504456 
	C1560.032837,828.821289 1572.058228,810.649231 1581.921265,791.161438 
	C1594.491455,766.325012 1604.338257,740.366089 1609.344604,712.940918 
	C1613.041138,692.691711 1615.631836,672.204895 1617.798218,651.726929 
	C1618.906128,641.254578 1617.864624,630.567017 1618.033447,619.980469 
	C1618.343262,600.552856 1617.516113,581.179199 1613.949829,562.075195 
	C1610.720825,544.777954 1607.512085,527.399536 1602.788940,510.477081 
	C1595.931519,485.907684 1585.557495,462.688965 1572.412842,440.729340 
	C1561.092651,421.817474 1547.928345,404.311462 1532.736938,388.411102 
	C1525.316895,380.644775 1517.486816,373.063873 1508.897705,366.667419 
	C1494.660645,356.064911 1480.192627,345.568573 1464.859741,336.688721 
	C1440.738403,322.718994 1414.620117,313.341766 1387.373291,307.190063 
	C1365.205811,302.185181 1342.732788,299.734619 1320.074951,299.056396 
	C1296.507812,298.350983 1273.072998,299.970673 1249.792725,303.927338 
	C1230.226318,307.252869 1211.072021,312.062286 1192.556641,319.201263 
	C1170.117554,327.853210 1148.854004,338.808899 1128.503784,352.997253 
z"/>
<path fill="#130912" opacity="1.000000" stroke="none" 
	d="
M824.098755,1154.977783 
	C975.756287,1154.984863 1127.413818,1154.995850 1279.071289,1154.998535 
	C1478.392578,1155.001953 1677.713989,1154.999390 1877.035278,1154.997314 
	C1883.989380,1154.997314 1883.998535,1154.986694 1883.998535,1147.933594 
	C1884.000000,798.954590 1884.000000,449.975586 1883.998413,100.996559 
	C1883.998413,94.012314 1883.988525,94.002678 1876.965454,94.002678 
	C1526.320190,94.002480 1175.674805,94.004059 824.435059,94.400345 
	C823.561523,97.093468 823.040405,99.391525 823.038879,101.689934 
	C823.002136,157.490875 823.020813,213.291840 823.029480,269.092773 
	C821.619202,269.394531 820.209839,269.953644 818.798523,269.958801 
	C802.133728,270.019562 785.467773,269.905396 768.804443,270.069000 
	C765.134460,270.105042 763.927734,269.043701 763.932495,265.276093 
	C764.027527,190.117157 764.025696,114.958031 763.935974,39.799072 
	C763.931580,36.127934 764.959045,34.507622 768.731689,34.972805 
	C770.208923,35.154957 771.727661,34.998913 773.227539,34.998913 
	C1160.021729,34.998737 1546.816040,34.998726 1933.610229,34.998844 
	C1943.000000,34.998848 1943.000610,34.999588 1943.000610,44.135590 
	C1943.000732,431.096466 1943.004883,818.057312 1942.977417,1205.018188 
	C1942.976685,1215.391724 1944.398926,1213.977051 1933.956421,1213.977783 
	C1546.828857,1214.005249 1159.701294,1214.004395 772.573792,1213.981567 
	C762.787720,1213.981079 764.025269,1215.199341 764.020264,1205.547607 
	C763.982483,1132.221680 763.998474,1058.895752 764.002197,985.569824 
	C764.002502,979.019043 764.017517,978.977051 770.457214,979.007690 
	C787.778259,979.090088 805.099060,979.211853 822.719849,980.087036 
	C823.013794,1036.114990 822.991943,1091.373779 823.048584,1146.632690 
	C823.051453,1149.414795 823.733154,1152.196045 824.098755,1154.977783 
z"/>
<path fill="#130912" opacity="1.000000" stroke="none" 
	d="
M1128.782471,352.765533 
	C1148.854004,338.808899 1170.117554,327.853210 1192.556641,319.201263 
	C1211.072021,312.062286 1230.226318,307.252869 1249.792725,303.927338 
	C1273.072998,299.970673 1296.507812,298.350983 1320.074951,299.056396 
	C1342.732788,299.734619 1365.205811,302.185181 1387.373291,307.190063 
	C1414.620117,313.341766 1440.738403,322.718994 1464.859741,336.688721 
	C1480.192627,345.568573 1494.660645,356.064911 1508.897705,366.667419 
	C1517.486816,373.063873 1525.316895,380.644775 1532.736938,388.411102 
	C1547.928345,404.311462 1561.092651,421.817474 1572.412842,440.729340 
	C1585.557495,462.688965 1595.931519,485.907684 1602.788940,510.477081 
	C1607.512085,527.399536 1610.720825,544.777954 1613.949829,562.075195 
	C1617.516113,581.179199 1618.343262,600.552856 1618.033447,619.980469 
	C1617.864624,630.567017 1618.906128,641.254578 1617.798218,651.726929 
	C1615.631836,672.204895 1613.041138,692.691711 1609.344604,712.940918 
	C1604.338257,740.366089 1594.491455,766.325012 1581.921265,791.161438 
	C1572.058228,810.649231 1560.032837,828.821289 1545.905273,845.504456 
	C1539.169678,853.458435 1532.307861,861.390076 1524.773438,868.565613 
	C1508.124146,884.421875 1489.951050,898.344177 1469.829834,909.644226 
	C1452.058472,919.624573 1433.687866,928.201721 1414.240112,934.386047 
	C1395.345581,940.394592 1376.156006,945.361023 1356.369019,946.899780 
	C1336.057983,948.479431 1315.651611,950.000000 1295.311890,949.722534 
	C1274.204224,949.434631 1253.220947,946.404480 1232.511230,941.789551 
	C1204.560425,935.560913 1178.000732,925.542114 1153.226685,911.419434 
	C1138.831665,903.213501 1125.270386,893.366516 1112.085083,883.276550 
	C1102.520264,875.957214 1093.714844,867.476257 1085.406982,858.720032 
	C1069.688721,842.153687 1056.292236,823.756165 1044.954468,803.893005 
	C1034.185303,785.025818 1024.749756,765.483459 1018.934143,744.550293 
	C1013.870850,726.325256 1009.234985,707.857788 1006.304321,689.199890 
	C1003.569397,671.788086 1002.930359,654.002930 1002.116394,636.347656 
	C1001.484070,622.632446 1001.260864,608.815247 1002.164856,595.129822 
	C1004.016174,567.105225 1008.464600,539.448303 1016.271851,512.381042 
	C1022.435974,491.010315 1030.924683,470.603119 1041.513794,451.104095 
	C1050.578003,434.413177 1060.890869,418.470978 1073.436646,404.139648 
	C1081.401367,395.041321 1089.308350,385.786713 1098.168823,377.606842 
	C1107.716309,368.792511 1118.346069,361.150635 1128.782471,352.765533 
M1105.892212,535.239319 
	C1103.559937,545.179504 1100.996216,555.072083 1098.942993,565.069580 
	C1094.441040,586.990112 1093.513306,609.169983 1093.853394,631.518799 
	C1094.126465,649.445679 1095.839355,667.127930 1098.920044,684.758118 
	C1102.977173,707.976013 1109.948730,730.241272 1119.871460,751.595581 
	C1127.849854,768.765503 1137.967163,784.500671 1150.299072,798.948914 
	C1166.080811,817.438965 1184.557007,832.476135 1205.900146,843.898499 
	C1235.674561,859.833130 1268.068848,865.885315 1301.370728,866.755981 
	C1317.358276,867.174072 1333.466797,865.532776 1349.424194,863.888000 
	C1370.434692,861.722473 1390.505615,855.499634 1409.374878,846.126892 
	C1431.923706,834.926392 1451.492554,819.719055 1468.080200,800.574524 
	C1482.388672,784.059998 1493.688477,765.845886 1502.563965,745.933228 
	C1516.654541,714.320312 1523.910522,681.012390 1525.731079,646.732056 
	C1527.207520,618.932556 1526.542480,591.024170 1521.037354,563.477661 
	C1516.494629,540.747009 1510.210327,518.574524 1500.210938,497.621460 
	C1486.649780,469.204742 1468.249023,444.635651 1443.468994,424.729401 
	C1423.003174,408.288940 1400.200928,396.976318 1375.119263,390.106537 
	C1359.493896,385.826813 1343.442505,384.066101 1327.248047,382.704285 
	C1309.398315,381.203278 1291.659546,381.836823 1274.207764,384.460754 
	C1257.854126,386.919647 1241.619873,391.230835 1225.866333,396.363861 
	C1203.932495,403.510681 1184.987549,416.381195 1167.934448,431.729889 
	C1153.361694,444.846069 1140.766235,459.761963 1130.763794,476.763580 
	C1120.064209,494.950256 1111.716187,514.122131 1105.892212,535.239319 
z"/>
<path fill="#130912" opacity="1.000000" stroke="none" 
	d="
M383.969360,312.163391 
	C410.962219,312.112305 437.955200,312.092346 464.947693,311.966125 
	C467.926971,311.952148 469.291870,312.899109 469.016998,315.978333 
	C468.869446,317.631165 469.000458,319.308655 469.000458,320.975006 
	C469.000885,431.622101 468.821442,542.269714 469.178223,652.915710 
	C469.237244,671.224182 471.574280,689.530212 472.978546,707.828186 
	C474.627075,729.308899 478.834717,750.286316 486.063568,770.597961 
	C494.595276,794.570557 506.203766,816.701599 525.502930,833.961182 
	C545.558838,851.897583 568.948608,862.920837 595.366577,868.087524 
	C616.890320,872.297058 638.611328,872.853210 660.291016,871.789917 
	C684.470764,870.604065 708.236816,866.244690 730.046082,854.919128 
	C754.408875,842.267761 773.649902,824.325806 786.679138,799.783875 
	C798.565002,777.395386 806.022034,753.718811 810.086121,728.788086 
	C813.874390,705.548523 816.027100,682.232605 816.073730,658.659424 
	C816.171204,609.379028 816.830627,560.099792 816.958923,510.819275 
	C817.125488,446.831024 816.998535,382.842041 817.001465,318.853363 
	C817.001770,312.016327 817.012573,312.003998 823.674622,312.002655 
	C848.003662,311.997772 872.333191,312.084381 896.661133,311.921112 
	C900.713684,311.893921 902.084412,312.950104 902.080933,317.191803 
	C901.977905,443.669312 902.152405,570.147400 901.784912,696.623962 
	C901.742920,711.051331 898.884888,725.483765 897.133362,739.889648 
	C894.593811,760.778503 889.299133,781.009827 882.153320,800.777466 
	C872.744324,826.805969 859.726501,850.715393 841.703552,871.908813 
	C821.271973,895.934631 796.498352,914.044312 767.918518,926.941589 
	C747.994690,935.932678 727.001343,941.480286 705.413147,945.118591 
	C680.118347,949.381470 654.653870,950.931641 629.140930,949.786194 
	C611.540222,948.995911 593.954590,946.707520 576.496765,944.165100 
	C550.296021,940.349365 525.356750,932.064514 502.372375,918.919250 
	C490.411438,912.078613 479.091034,903.937866 468.182190,895.480347 
	C452.229523,883.112427 439.268219,867.777344 428.356598,850.846619 
	C414.664337,829.601379 404.319977,806.732483 398.022064,782.245850 
	C393.842316,765.994812 390.440460,749.524170 387.284607,733.038025 
	C385.800659,725.285828 385.449860,717.278687 385.060974,709.363770 
	C384.482574,697.591553 384.325653,685.798767 383.983948,673.077698 
	C383.975464,552.148254 383.972412,432.155823 383.969360,312.163391 
z"/>
<path fill="#000000" opacity="1.000000" stroke="none" 
	d="
M383.633606,312.409729 
	C383.972412,432.155823 383.975464,552.148254 383.973328,672.614746 
	C383.645569,671.368591 383.041290,669.648621 383.040619,667.928345 
	C382.996246,550.993347 382.999268,434.058319 383.012726,317.123291 
	C383.012909,315.634216 383.198700,314.145172 383.633606,312.409729 
z"/>
<path fill="#000000" opacity="1.000000" stroke="none" 
	d="
M823.359497,268.812500 
	C823.020813,213.291840 823.002136,157.490875 823.038879,101.689934 
	C823.040405,99.391525 823.561523,97.093468 823.973022,94.404900 
	C824.070312,149.870224 824.038818,205.725906 823.987000,261.581573 
	C823.984863,263.898529 823.793030,266.215332 823.359497,268.812500 
z"/>
<path fill="#000000" opacity="1.000000" stroke="none" 
	d="
M824.063354,1154.512085 
	C823.733154,1152.196045 823.051453,1149.414795 823.048584,1146.632690 
	C822.991943,1091.373779 823.013794,1036.114990 823.024597,980.381653 
	C823.352966,981.961304 823.956848,984.015076 823.959106,986.069519 
	C824.019592,1042.061768 824.018616,1098.054077 824.063354,1154.512085 
z"/>
<path fill="#4C6971" opacity="1.000000" stroke="none" 
	d="
M1105.936157,534.834351 
	C1111.716187,514.122131 1120.064209,494.950256 1130.763794,476.763580 
	C1140.766235,459.761963 1153.361694,444.846069 1167.934448,431.729889 
	C1184.987549,416.381195 1203.932495,403.510681 1225.866333,396.363861 
	C1241.619873,391.230835 1257.854126,386.919647 1274.207764,384.460754 
	C1291.659546,381.836823 1309.398315,381.203278 1327.248047,382.704285 
	C1343.442505,384.066101 1359.493896,385.826813 1375.119263,390.106537 
	C1400.200928,396.976318 1423.003174,408.288940 1443.468994,424.729401 
	C1468.249023,444.635651 1486.649780,469.204742 1500.210938,497.621460 
	C1510.210327,518.574524 1516.494629,540.747009 1521.037354,563.477661 
	C1526.542480,591.024170 1527.207520,618.932556 1525.731079,646.732056 
	C1523.910522,681.012390 1516.654541,714.320312 1502.563965,745.933228 
	C1493.688477,765.845886 1482.388672,784.059998 1468.080200,800.574524 
	C1451.492554,819.719055 1431.923706,834.926392 1409.374878,846.126892 
	C1390.505615,855.499634 1370.434692,861.722473 1349.424194,863.888000 
	C1333.466797,865.532776 1317.358276,867.174072 1301.370728,866.755981 
	C1268.068848,865.885315 1235.674561,859.833130 1205.900146,843.898499 
	C1184.557007,832.476135 1166.080811,817.438965 1150.299072,798.948914 
	C1137.967163,784.500671 1127.849854,768.765503 1119.871460,751.595581 
	C1109.948730,730.241272 1102.977173,707.976013 1098.920044,684.758118 
	C1095.839355,667.127930 1094.126465,649.445679 1093.853394,631.518799 
	C1093.513306,609.169983 1094.441040,586.990112 1098.942993,565.069580 
	C1100.996216,555.072083 1103.559937,545.179504 1105.936157,534.834351 
z"/>
</svg>